<?xml version="1.0" standalone="no"?>
<!DOCTYPE svg PUBLIC "-//W3C//DTD SVG 20010904//EN"
 "http://www.w3.org/TR/2001/REC-SVG-20010904/DTD/svg10.dtd">
<svg version="1.0" xmlns="http://www.w3.org/2000/svg"
 width="48.000000pt" height="48.000000pt" viewBox="0 0 48.000000 48.000000"
 preserveAspectRatio="xMidYMid meet">

<g transform="translate(0.000000,48.000000) scale(0.100000,-0.100000)"
fill="#000000" stroke="none">
<path d="M189 431 c-94 -30 -145 -125 -119 -220 13 -48 140 -191 170 -191 30
0 157 143 170 191 21 76 -10 159 -74 199 -38 23 -109 33 -147 21z m105 -103
c8 -13 8 -23 0 -35 -9 -14 -8 -23 4 -40 13 -21 12 -26 -2 -48 -14 -21 -25 -25
-61 -25 l-45 0 0 86 0 85 46 -3 c31 -2 51 -9 58 -20z"/>
<path d="M220 305 c0 -28 21 -33 39 -11 10 12 8 17 -8 25 -28 15 -31 14 -31
-14z"/>
<path d="M220 224 c0 -20 4 -25 16 -20 9 3 20 6 25 6 5 0 9 9 9 20 0 15 -7 20
-25 20 -20 0 -25 -5 -25 -26z"/>
</g>
</svg>
