<?xml version="1.0" standalone="no"?>
<!DOCTYPE svg PUBLIC "-//W3C//DTD SVG 20010904//EN"
 "http://www.w3.org/TR/2001/REC-SVG-20010904/DTD/svg10.dtd">
<svg version="1.0" xmlns="http://www.w3.org/2000/svg"
 width="400.000000pt" height="400.000000pt" viewBox="0 0 400.000000 400.000000"
 preserveAspectRatio="xMidYMid meet">

<g transform="translate(0.000000,400.000000) scale(0.100000,-0.100000)"
fill="#000000" stroke="none">
<path d="M1825 3684 c-193 -21 -385 -78 -570 -168 -163 -80 -279 -162 -419
-296 -301 -289 -478 -661 -516 -1089 -27 -298 40 -629 184 -907 90 -173 161
-269 311 -420 154 -154 266 -237 443 -325 381 -189 841 -225 1238 -98 582 186
1017 660 1148 1249 83 374 39 755 -125 1100 -91 190 -198 338 -356 491 -231
223 -514 371 -838 439 -98 20 -397 35 -500 24z m470 -99 c102 -21 238 -59 290
-80 96 -40 211 -98 278 -141 634 -407 902 -1158 671 -1875 -68 -211 -200 -430
-362 -601 -72 -76 -123 -120 -247 -215 -120 -93 -358 -198 -545 -242 -486
-114 -980 -5 -1374 303 -276 216 -481 531 -564 871 -36 144 -46 228 -46 390 0
304 66 559 208 799 23 39 45 78 48 86 3 8 45 63 92 122 262 325 627 534 1036
594 125 18 405 12 515 -11z"/>
<path d="M1912 3129 c6 -4 -7 -9 -28 -11 -22 -3 -42 -1 -45 5 -4 5 -9 5 -13
-2 -4 -6 -16 -11 -27 -11 -27 0 -99 -23 -99 -32 0 -4 -16 -7 -35 -6 -32 1 -56
-8 -178 -68 -16 -8 -34 -14 -41 -14 -7 0 -21 -9 -31 -20 -10 -11 -26 -20 -36
-20 -10 0 -23 -13 -31 -30 -9 -21 -18 -28 -30 -24 -12 4 -21 -3 -30 -20 -6
-14 -17 -26 -25 -26 -7 0 -18 -9 -25 -20 -7 -11 -18 -20 -25 -20 -7 0 -13 -5
-13 -11 0 -7 -20 -32 -45 -56 -25 -25 -43 -49 -40 -53 3 -4 -7 -16 -21 -26
-25 -19 -54 -67 -54 -89 0 -7 -7 -18 -15 -25 -9 -7 -13 -15 -11 -17 3 -3 -9
-23 -25 -46 -16 -22 -29 -51 -29 -64 0 -13 -10 -37 -21 -52 -12 -16 -19 -34
-15 -39 3 -6 0 -12 -6 -15 -10 -3 -10 -8 -2 -17 9 -8 17 -9 31 -2 20 11 84 22
228 42 283 37 312 42 370 69 115 53 142 87 271 344 190 380 200 381 379 11
130 -268 159 -305 269 -358 63 -31 97 -38 286 -65 118 -17 241 -36 272 -42 49
-10 59 -9 73 5 9 9 12 16 6 16 -6 0 -8 6 -5 13 2 7 -4 21 -15 31 -11 10 -17
24 -14 32 3 8 -2 21 -12 28 -10 7 -15 18 -11 24 8 14 -10 55 -50 112 -17 25
-34 54 -38 66 -3 11 -17 26 -29 33 -12 7 -29 26 -36 42 -13 29 -64 87 -93 106
-7 4 -18 17 -24 28 -6 11 -20 24 -32 30 -12 5 -22 13 -22 17 0 5 -8 8 -19 8
-10 0 -29 13 -42 29 -13 15 -40 36 -59 46 -18 10 -40 24 -48 31 -11 12 -32 18
-53 16 -3 -1 -18 10 -34 24 -15 13 -31 24 -34 25 -3 0 -28 2 -56 4 -27 1 -51
8 -53 14 -2 6 -21 11 -43 11 -21 0 -39 5 -39 10 0 6 -26 10 -59 10 -33 0 -61
4 -63 9 -1 5 -51 11 -110 13 -58 1 -102 0 -96 -3z"/>
<path d="M1953 2790 c-13 -5 -32 -24 -43 -42 -20 -31 -22 -70 -9 -142 3 -13
-6 -24 -25 -35 -50 -29 -70 -65 -70 -126 l1 -55 -42 0 c-54 0 -91 -28 -106
-81 -13 -43 -16 -45 -43 -24 -34 26 -90 19 -126 -15 -35 -33 -70 -39 -90 -15
-7 8 -28 19 -47 24 -45 13 -90 -5 -122 -45 -20 -25 -22 -38 -19 -88 4 -51 9
-63 36 -87 24 -22 43 -29 72 -29 38 0 39 -1 34 -29 -12 -61 45 -151 97 -151
14 0 19 -7 19 -27 0 -38 33 -89 70 -108 30 -15 30 -16 13 -42 -14 -21 -18 -48
-18 -114 0 -83 -2 -89 -29 -118 -56 -59 -44 -171 24 -206 59 -31 126 -10 154
49 9 19 16 39 16 44 0 20 20 23 42 8 29 -20 97 -20 126 0 12 8 29 28 37 45 14
27 17 28 38 15 43 -28 96 -24 135 9 17 14 32 25 36 25 3 0 13 -14 21 -31 19
-35 74 -62 109 -53 36 9 64 -12 76 -54 14 -52 49 -83 102 -89 37 -4 49 -1 76
22 64 54 65 160 2 207 -36 27 -37 37 -5 84 27 39 33 93 15 138 -7 21 -5 33 10
59 13 21 20 50 20 83 0 44 3 52 25 62 33 15 65 69 65 108 0 39 26 63 66 62
126 -4 157 198 38 248 -39 16 -81 8 -115 -22 -15 -14 -17 -12 -23 20 -14 76
-118 114 -180 65 l-27 -21 -27 25 c-34 32 -73 42 -112 29 -38 -14 -43 -4 -23
46 29 76 -13 164 -86 178 -29 6 -29 7 -24 58 6 58 -11 104 -49 130 -24 17 -80
20 -115 6z m33 -51 c10 -17 -13 -36 -27 -22 -12 12 -4 33 11 33 5 0 12 -5 16
-11z m118 -220 c-8 -14 -34 -11 -34 4 0 8 3 17 7 20 9 9 34 -13 27 -24z m-199
-9 c0 -8 -8 -16 -17 -18 -13 -2 -18 3 -18 18 0 15 5 20 18 18 9 -2 17 -10 17
-18z m99 -175 c3 -9 -1 -18 -10 -22 -19 -7 -28 2 -21 22 8 19 23 19 31 0z
m-254 -9 c0 -20 -19 -31 -32 -18 -6 6 -7 15 -4 21 10 16 36 13 36 -3z m520
-22 c0 -17 -26 -19 -36 -3 -7 12 15 31 28 23 4 -3 8 -12 8 -20z m200 -8 c0
-20 -19 -31 -32 -18 -6 6 -7 15 -4 21 10 16 36 13 36 -3z m-925 -67 c0 -7 -8
-15 -17 -17 -18 -3 -25 18 -11 32 10 10 28 1 28 -15z m-240 -19 c0 -22 -29
-18 -33 3 -3 14 1 18 15 15 10 -2 18 -10 18 -18z m1375 6 c0 -8 -5 -18 -11
-22 -14 -8 -33 11 -25 25 10 16 36 13 36 -3z m-750 -57 c0 -24 -23 -21 -28 4
-2 10 3 17 12 17 10 0 16 -9 16 -21z m330 8 c0 -19 -10 -27 -26 -20 -21 8 -17
33 6 33 11 0 20 -6 20 -13z m-540 -101 c0 -15 -24 -28 -34 -19 -13 14 -5 33
14 33 11 0 20 -6 20 -14z m-272 -33 c-4 -22 -22 -20 -26 1 -2 10 3 16 13 16
10 0 15 -7 13 -17z m1052 4 c0 -8 -3 -17 -7 -20 -9 -9 -34 13 -27 24 8 14 34
11 34 -4z m-270 -53 c0 -2 -7 -4 -15 -4 -8 0 -15 4 -15 10 0 5 7 7 15 4 8 -4
15 -8 15 -10z m-255 -35 c0 -7 -8 -15 -17 -17 -18 -3 -25 18 -11 32 10 10 28
1 28 -15z m-409 -50 c10 -17 -13 -36 -27 -22 -12 12 -4 33 11 33 5 0 12 -5 16
-11z m220 0 c10 -17 -13 -36 -27 -22 -12 12 -4 33 11 33 5 0 12 -5 16 -11z
m624 -49 c0 -11 -6 -20 -13 -20 -19 0 -27 10 -20 26 8 21 33 17 33 -6z m-340
-63 c0 -8 -3 -17 -7 -20 -9 -9 -34 13 -27 24 8 14 34 11 34 -4z m-436 -138
c-8 -14 -34 -11 -34 4 0 8 3 17 7 20 9 9 34 -13 27 -24z m756 5 c0 -9 -7 -14
-17 -12 -25 5 -28 28 -4 28 12 0 21 -6 21 -16z m-400 -88 c0 -20 -19 -31 -32
-18 -6 6 -7 15 -4 21 10 16 36 13 36 -3z m220 -36 c0 -11 -7 -20 -15 -20 -8 0
-15 9 -15 20 0 11 7 20 15 20 8 0 15 -9 15 -20z m-420 -24 c0 -8 -4 -17 -8
-20 -13 -8 -35 11 -28 23 10 16 36 14 36 -3z m-222 -99 c2 -12 -3 -17 -17 -17
-12 0 -21 6 -21 13 0 31 32 34 38 4z m852 -18 c0 -12 -29 -24 -37 -16 -3 4 -3
13 0 21 6 16 37 11 37 -5z"/>
<path d="M889 2293 c-5 -28 -5 -70 0 -78 10 -18 10 -39 0 -54 -9 -14 -10 -13
-5 2 4 11 2 16 -5 12 -6 -4 -7 -14 -4 -24 11 -27 13 -61 3 -61 -5 0 -8 -43 -5
-102 4 -116 26 -278 37 -278 4 0 13 -21 19 -47 7 -27 17 -56 22 -65 5 -10 9
-29 9 -43 0 -14 4 -25 10 -25 5 0 12 -11 16 -24 3 -14 12 -27 21 -30 8 -3 12
-14 9 -23 -2 -11 10 -36 30 -63 19 -25 37 -53 40 -62 4 -10 10 -18 15 -18 4 0
22 -20 40 -45 18 -25 38 -45 46 -45 7 0 13 -6 13 -13 0 -17 69 -79 81 -72 5 4
9 -2 10 -12 1 -44 20 33 55 226 40 227 41 279 4 376 -20 54 -42 80 -231 269
-197 198 -209 211 -208 245 1 20 1 42 0 49 -1 13 -20 17 -22 5z m21 -17 c0 -3
-4 -8 -10 -11 -5 -3 -10 -1 -10 4 0 6 5 11 10 11 6 0 10 -2 10 -4z"/>
<path d="M3085 2280 c-3 -5 2 -10 12 -10 15 0 16 -2 3 -10 -12 -7 -10 -9 8 -7
25 1 27 8 10 25 -15 15 -25 15 -33 2z"/>
<path d="M3096 2224 c-3 -9 -3 -20 0 -25 3 -6 -54 -67 -127 -137 -268 -256
-293 -283 -318 -347 -34 -88 -36 -152 -12 -300 38 -236 53 -304 67 -309 8 -3
14 -1 14 4 0 12 59 70 71 70 11 0 59 52 59 65 0 5 10 19 23 30 12 11 33 37 47
57 14 21 28 38 33 38 4 0 7 11 7 25 0 14 8 29 20 35 12 6 20 21 20 35 0 14 4
25 8 25 8 0 42 64 41 76 0 4 5 10 12 14 6 4 14 31 17 59 2 28 9 54 13 57 5 3
9 15 9 28 0 13 7 37 16 55 9 18 16 42 15 54 -4 51 -1 197 5 255 4 48 3 62 -8
62 -9 0 -13 14 -13 45 0 46 -8 58 -19 29z"/>
<path d="M1923 1220 c-48 -10 -137 -51 -318 -149 -123 -66 -149 -87 -105 -85
11 0 20 -3 20 -8 0 -4 9 -8 20 -8 12 0 30 -8 41 -19 11 -10 37 -21 57 -25 20
-3 50 -13 65 -21 50 -26 149 -37 293 -32 77 3 167 5 200 6 42 0 67 5 77 16 9
8 23 15 32 15 16 0 95 23 147 42 15 6 26 14 23 18 -3 5 4 6 15 3 43 -11 18 26
-37 58 -325 184 -407 213 -530 189z"/>
</g>
</svg>
