<?xml version="1.0" standalone="no"?>
<!DOCTYPE svg PUBLIC "-//W3C//DTD SVG 20010904//EN"
 "http://www.w3.org/TR/2001/REC-SVG-20010904/DTD/svg10.dtd">
<svg version="1.0" xmlns="http://www.w3.org/2000/svg"
 width="200.000000pt" height="200.000000pt" viewBox="0 0 200.000000 200.000000"
 preserveAspectRatio="xMidYMid meet">

<g transform="translate(0.000000,200.000000) scale(0.100000,-0.100000)"
fill="#000000" stroke="none">
<path d="M140 1015 l0 -745 225 0 225 0 0 295 0 295 -150 0 -150 0 0 450 0
450 -75 0 -75 0 0 -745z"/>
<path d="M1340 1610 l0 -150 70 0 70 0 0 150 0 150 -70 0 -70 0 0 -150z"/>
<path d="M1040 1315 l0 -155 75 0 75 0 0 155 0 155 -75 0 -75 0 0 -155z"/>
<path d="M740 722 l0 -152 225 0 225 0 0 145 0 145 -112 0 c-62 0 -164 3 -225
7 l-113 6 0 -151z"/>
<path d="M1340 572 l0 -302 225 0 225 0 0 295 0 295 -118 0 c-66 0 -167 3
-225 7 l-107 6 0 -301z"/>
</g>
</svg>
