<?xml version="1.0" encoding="UTF-8"?>
<svg version="1.1" xmlns="http://www.w3.org/2000/svg" width="200" height="200">
<path d="M0 0 C15.18 0 30.36 0 46 0 C46 9.57 46 19.14 46 29 C55.57 29 65.14 29 75 29 C75 38.9 75 48.8 75 59 C79.95 59 84.9 59 90 59 C90 49.1 90 39.2 90 29 C99.57 29 109.14 29 119 29 C119 19.43 119 9.86 119 0 C134.18 0 149.36 0 165 0 C165 49.17 165 98.34 165 149 C149.82 149 134.64 149 119 149 C119 129.53 119 110.06 119 90 C114.38 90 109.76 90 105 90 C105 99.9 105 109.8 105 120 C90.15 120 75.3 120 60 120 C60 110.1 60 100.2 60 90 C55.38 90 50.76 90 46 90 C46 109.47 46 128.94 46 149 C30.82 149 15.64 149 0 149 C0 99.83 0 50.66 0 0 Z " fill="#FE6F01" transform="translate(14,24)"/>
<path d="M0 0 C10.23 0 20.46 0 31 0 C31 9.57 31 19.14 31 29 C40.57 29 50.14 29 60 29 C60 38.9 60 48.8 60 59 C64.95 59 69.9 59 75 59 C75 49.1 75 39.2 75 29 C84.57 29 94.14 29 104 29 C104 19.43 104 9.86 104 0 C119.18 0 134.36 0 150 0 C150 19.8 150 39.6 150 60 C100.5 60 51 60 0 60 C0 40.2 0 20.4 0 0 Z " fill="#FDA000" transform="translate(29,24)"/>
<path d="M0 0 C10.23 0 20.46 0 31 0 C31 9.57 31 19.14 31 29 C40.57 29 50.14 29 60 29 C60 38.9 60 48.8 60 59 C64.95 59 69.9 59 75 59 C75 59.33 75 59.66 75 60 C50.25 60 25.5 60 0 60 C0 40.2 0 20.4 0 0 Z " fill="#FFA101" transform="translate(29,24)"/>
<path d="M0 0 C4.95 0 9.9 0 15 0 C15 49.17 15 98.34 15 149 C10.05 149 5.1 149 0 149 C0 99.83 0 50.66 0 0 Z " fill="#000000" transform="translate(14,24)"/>
<path d="M0 0 C5.28 0 10.56 0 16 0 C16 9.57 16 19.14 16 29 C25.9 29 35.8 29 46 29 C46 38.9 46 48.8 46 59 C30.82 59 15.64 59 0 59 C0 39.53 0 20.06 0 0 Z " fill="#F9070E" transform="translate(133,114)"/>
<path d="M0 0 C14.85 0 29.7 0 45 0 C45 9.9 45 19.8 45 30 C30.15 30 15.3 30 0 30 C0 20.1 0 10.2 0 0 Z " fill="#FF4909" transform="translate(74,114)"/>
<path d="M0 0 C9.9 0 19.8 0 30 0 C30 9.9 30 19.8 30 30 C20.1 30 10.2 30 0 30 C0 20.1 0 10.2 0 0 Z " fill="#FF060E" transform="translate(29,143)"/>
<path d="M0 0 C10.23 0 20.46 0 31 0 C31 9.57 31 19.14 31 29 C20.77 29 10.54 29 0 29 C0 19.43 0 9.86 0 0 Z " fill="#FFCD04" transform="translate(29,24)"/>
<path d="M0 0 C4.95 0 9.9 0 15 0 C15 19.47 15 38.94 15 59 C10.05 59 5.1 59 0 59 C0 39.53 0 20.06 0 0 Z " fill="#000000" transform="translate(133,114)"/>
<path d="M0 0 C9.9 0 19.8 0 30 0 C30 9.57 30 19.14 30 29 C20.1 29 10.2 29 0 29 C0 19.43 0 9.86 0 0 Z " fill="#FF4A0A" transform="translate(149,114)"/>
<path d="M0 0 C9.9 0 19.8 0 30 0 C30 9.57 30 19.14 30 29 C20.1 29 10.2 29 0 29 C0 19.43 0 9.86 0 0 Z " fill="#FF4A0A" transform="translate(29,114)"/>
<path d="M0 0 C9.9 0 19.8 0 30 0 C30 9.57 30 19.14 30 29 C20.1 29 10.2 29 0 29 C0 19.43 0 9.86 0 0 Z " fill="#FFCD00" transform="translate(149,24)"/>
<path d="M0 0 C4.95 0 9.9 0 15 0 C15 10.23 15 20.46 15 31 C10.05 31 5.1 31 0 31 C0 20.77 0 10.54 0 0 Z " fill="#050200" transform="translate(104,53)"/>
<path d="M0 0 C4.95 0 9.9 0 15 0 C15 9.9 15 19.8 15 30 C10.05 30 5.1 30 0 30 C0 20.1 0 10.2 0 0 Z " fill="#000000" transform="translate(74,114)"/>
<path d="M0 0 C4.95 0 9.9 0 15 0 C15 9.57 15 19.14 15 29 C10.05 29 5.1 29 0 29 C0 19.43 0 9.86 0 0 Z " fill="#000000" transform="translate(133,24)"/>
</svg>
